{"title":"John Wick (2014) 1080p BluRay [Dual Audio] [DD 2.0 Hindi + DTS 5","uid":11710139,"size":3375100083,"categoryP":"video","categoryS":"hd___movies","magnet":"?xt=urn:btih:252097f0e6e86b8a7916accdd819c7ccf47dd827&amp;dn=John+Wick+%282014%29+1080p+BluRay+%5BDual+Audio%5D+%5BDD+2.0+Hindi+%2B+DTS+5&amp;tr=udp%3A%2F%2Ftracker.openbittorrent.com%3A80&amp;tr=udp%3A%2F%2Fopen.demonii.com%3A1337&amp;tr=udp%3A%2F%2Ftracker.coppersurfer.tk%3A6969&amp;tr=udp%3A%2F%2Fexodus.desync.com%3A6969","seeders":4,"leechers":1,"uploader":"kamalesh","files":2,"time":1424302583,"description":"[center][IMG]http://i.imgur.com/DpFY1tB.png[/IMG]\n\n[img]http://i.imgur.com/NZxjX2C.jpg[/img]\n\n[color=blue][size=5][b][i]John Wick (2014) 1080p BluRay \n[Dual Audio] [DD 2.0 Hindi + DTS 5.1 English] \nBUZZccd - Team Telly[/i][/b][/size][/color]\n\n[b][i]*************************************************************************[/i][/b]\n\n[img]http://i.imgur.com/44vnLad.png[/img]\n[B]Format                      : Matroska\nFormat version              : Version 4 / Version 2\nFile size                   : 3.11 GiB\nDuration                    : 1h 41mn\nOverall bit rate            : 4 395 Kbps\nMovie name                  : John Wick (2014) BUZZccd\n[/B]\n\n[b][i]*************************************************************************[/i][/b]\n\n[img]http://i.imgur.com/4ZWLTdK.png[/img]\n[B]Format                      : AVC\nFormat/Info                 : Advanced Video Codec\nFormat profile              : &lt;a class=&quot;__cf_email__&quot; href=&quot;/cdn-cgi/l/email-protection&quot; data-cfemail=&quot;3e765759567e720a100f&quot;&gt;[email&amp;#160;protected]&lt;/a&gt;&lt;script cf-hash='f9e31' type=&quot;text/javascript&quot;&gt;\n/* &lt;![CDATA[ */!function(){try{var t=&quot;currentScript&quot;in document?document.currentScript:function(){for(var t=document.getElementsByTagName(&quot;script&quot;),e=t.length;e--;)if(t[e].getAttribute(&quot;cf-hash&quot;))return t[e]}();if(t&amp;&amp;t.previousSibling){var e,r,n,i,c=t.previousSibling,a=c.getAttribute(&quot;data-cfemail&quot;);if(a){for(e=&quot;&quot;,r=parseInt(a.substr(0,2),16),n=2;a.length-n;n+=2)i=parseInt(a.substr(n,2),16)^r,e+=String.fromCharCode(i);e=document.createTextNode(e),c.parentNode.replaceChild(e,c)}}}catch(u){}}();/* ]]&gt; */&lt;/script&gt;\nFormat settings, CABAC      : Yes\nFormat settings, ReFrames   : 5 frames\nCodec ID                    : V_MPEG4/ISO/AVC\nDuration                    : 1h 41mn\nBit rate                    : 3 400 Kbps\nWidth                       : 1 920 pixels\nHeight                      : 800 pixels\nDisplay aspect ratio        : 2.40:1\nFrame rate mode             : Constant\nFrame rate                  : 23.976 fps\nColor space                 : YUV\nChroma subsampling          : 4:2:0\nBit depth                   : 8 bits\nScan type                   : Progressive\nBits/(Pixel*Frame)          : 0.092\nStream size                 : 2.34 GiB (75%)\nWriting library             : x264 core 142 r2431 ac76440\nDefault                     : Yes\nForced                      : No\nColor primaries             : Generic film\nTransfer characteristics    : BT.709\nMatrix coefficients         : BT.709\nColor range                 : Limited\n[/B]\n\n[b][i]*************************************************************************[/i][/b]\n\n[img]http://i.imgur.com/QNQS7qd.png[/img]\n[B]Format                      : AC-3\nFormat/Info                 : Audio Coding 3\nMode extension              : CM (complete main)\nFormat settings, Endianness : Big\nCodec ID                    : A_AC3\nDuration                    : 1h 41mn\nBit rate mode               : Constant\nBit rate                    : 224 Kbps\nChannel(s)                  : 2 channels\nChannel positions           : Front: L R\nSampling rate               : 48.0 KHz\nBit depth                   : 16 bits\nCompression mode            : Lossy\nDelay relative to video     : 1s 300ms\nStream size                 : 162 MiB (5%)\nTitle                       : Hindi Org Untouched Dvd DD 2.0 224Kbps\nLanguage                    : Hindi\nDefault                     : Yes\nForced                      : No\n[/B]\n\n[img]http://i.imgur.com/haqVpTw.png[/img]\n[B]Format                      : DTS\nFormat/Info                 : Digital Theater Systems\nMode                        : 16\nFormat settings, Endianness : Big\nCodec ID                    : A_DTS\nDuration                    : 1h 41mn\nBit rate mode               : Constant\nBit rate                    : 768 Kbps\nChannel(s)                  : 6 channels\nChannel positions           : Front: L C R, Side: L R, LFE\nSampling rate               : 48.0 KHz\nBit depth                   : 24 bits\nCompression mode            : Lossy\nStream size                 : 556 MiB (17%)\nLanguage                    : English\nDefault                     : No\nForced                      : No\n[/B]\n\n[b][i]*************************************************************************[/i][/b]\n[IMG]http://i.imgur.com/Koetujw.gif[/IMG]\n\n[URL=http://someimage.com/3JtI0aF][IMG]http://t1.someimage.com/3JtI0aF.jpg[/IMG][/URL] [URL=http://someimage.com/CzL3ZMf][IMG]http://t1.someimage.com/CzL3ZMf.jpg[/IMG][/URL] [URL=http://someimage.com/XXnA2Yk][IMG]http://t1.someimage.com/XXnA2Yk.jpg[/IMG][/URL] [URL=http://someimage.com/S21SKMN][IMG]http://t1.someimage.com/S21SKMN.jpg[/IMG][/URL] [URL=http://someimage.com/gkMMBhi][IMG]http://t1.someimage.com/gkMMBhi.jpg[/IMG][/URL] [URL=http://someimage.com/Jrky5nK][IMG]http://t1.someimage.com/Jrky5nK.jpg[/IMG][/URL] [URL=http://someimage.com/EaAY9qS][IMG]http://t1.someimage.com/EaAY9qS.jpg[/IMG][/URL] [URL=http://someimage.com/ZlMubtx][IMG]http://t1.someimage.com/ZlMubtx.jpg[/IMG][/URL] [URL=http://someimage.com/8On4qL4][IMG]http://t1.someimage.com/8On4qL4.jpg[/IMG][/URL] [URL=http://someimage.com/GzQTBhZ][IMG]http://t1.someimage.com/GzQTBhZ.jpg[/IMG][/URL] [URL=http://someimage.com/aN6CBx8][IMG]http://t1.someimage.com/aN6CBx8.jpg[/IMG][/URL] [URL=http://someimage.com/1wL86Uj][IMG]http://t1.someimage.com/1wL86Uj.jpg[/IMG][/URL] [URL=http://someimage.com/2QDRaq1][IMG]http://t1.someimage.com/2QDRaq1.jpg[/IMG][/URL] [URL=http://someimage.com/kLGc7nK][IMG]http://t1.someimage.com/kLGc7nK.jpg[/IMG][/URL] [URL=http://someimage.com/19gCPRe][IMG]http://t1.someimage.com/19gCPRe.jpg[/IMG][/URL] [URL=http://someimage.com/QCKvhPm][IMG]http://t1.someimage.com/QCKvhPm.jpg[/IMG][/URL] \n\n[b][i]*************************************************************************[/i][/b]","torrent":{"xt":"urn:btih:252097f0e6e86b8a7916accdd819c7ccf47dd827","amp;dn":"John+Wick+%282014%29+1080p+BluRay+%5BDual+Audio%5D+%5BDD+2.0+Hindi+%2B+DTS+5","amp;tr":["udp%3A%2F%2Ftracker.openbittorrent.com%3A80","udp%3A%2F%2Fopen.demonii.com%3A1337","udp%3A%2F%2Ftracker.coppersurfer.tk%3A6969","udp%3A%2F%2Fexodus.desync.com%3A6969"],"infoHash":"252097f0e6e86b8a7916accdd819c7ccf47dd827","infoHashBuffer":{"type":"Buffer","data":[37,32,151,240,230,232,107,138,121,22,172,205,216,25,199,204,244,125,216,39]},"announce":[],"urlList":[]}}